<svg width="24" height="24" viewBox="0 0 24 24" fill="none" xmlns="http://www.w3.org/2000/svg">
<path d="M12 2.75001C12.9134 2.74833 13.8069 3.01756 14.5673 3.52365C15.3278 4.02973 15.921 4.74996 16.2722 5.59323C16.6233 6.43651 16.7164 7.36496 16.5399 8.26119C16.3633 9.15742 15.925 9.98116 15.2803 10.6283C14.6355 11.2754 13.8134 11.7167 12.9178 11.8966C12.0223 12.0764 11.0935 11.9867 10.2489 11.6387C9.40435 11.2907 8.68195 10.7 8.17307 9.94147C7.66418 9.1829 7.39167 8.29046 7.38998 7.37701V7.36851C7.38998 6.14508 7.87541 4.97163 8.7397 4.10574C9.604 3.23984 10.7766 2.75226 12 2.75001ZM12 13.6985C17.16 13.6985 21.2285 17.135 21.2285 18.8465V21.25H2.77148V18.8035C2.77148 17.092 6.83948 13.6985 12 13.6985Z" stroke="white" stroke-width="1.5" stroke-linecap="round" stroke-linejoin="round"/>
</svg>
