<svg width="19" height="19" viewBox="0 0 19 19" fill="none" xmlns="http://www.w3.org/2000/svg">
<path d="M18.1812 19L10.9189 11.7386C10.3391 12.2326 9.67222 12.6149 8.91839 12.8854C8.16456 13.156 7.40687 13.2913 6.6453 13.2913C4.78817 13.2913 3.21634 12.6485 1.92981 11.3629C0.643269 10.0773 0 8.50603 0 6.64913C0 4.79223 0.642495 3.2202 1.92749 1.93305C3.21248 0.645898 4.78354 0.00154891 6.64066 2.78081e-06C8.49779 -0.00154335 10.0704 0.641647 11.3585 1.92957C12.6466 3.2175 13.2906 4.78953 13.2906 6.64565C13.2906 7.45119 13.148 8.23082 12.8627 8.98456C12.5774 9.7383 12.2024 10.383 11.7377 10.9188L19 18.179L18.1812 19ZM6.64646 12.1305C8.18505 12.1305 9.48396 11.601 10.5432 10.5419C11.6024 9.4828 12.132 8.18367 12.132 6.64449C12.132 5.10532 11.6024 3.80657 10.5432 2.74825C9.48396 1.68992 8.18505 1.16037 6.64646 1.1596C5.10788 1.15883 3.80858 1.68838 2.74858 2.74825C1.68858 3.80812 1.15897 5.10687 1.15974 6.64449C1.16051 8.18212 1.69013 9.48087 2.74858 10.5407C3.80704 11.6006 5.10594 12.1302 6.6453 12.1294" fill="white"/>
</svg>
