<svg width="707" height="574" viewBox="0 0 707 574" fill="none" xmlns="http://www.w3.org/2000/svg">
    <mask id="mask0_360_327" style="mask-type:alpha" maskUnits="userSpaceOnUse" x="40" y="0" width="723" height="424">
        <path
            d="M401.5 0.5C501.252 0.5 591.537 24.1919 656.866 62.4707C722.207 100.757 762.5 153.575 762.5 211.816C762.5 270.057 722.207 322.876 656.866 361.162C591.537 399.441 501.252 423.133 401.5 423.133C301.748 423.133 211.463 399.441 146.134 361.162C80.7926 322.876 40.5 270.057 40.5 211.816C40.5 153.575 80.7926 100.757 146.134 62.4707C211.463 24.1919 301.748 0.5 401.5 0.5Z"
            fill="url(#paint0_linear_360_327)" stroke="#F93DAE" />
    </mask>
    <g mask="url(#mask0_360_327)">
        <circle cx="401.5" cy="443.402" r="33.3906" stroke="#F93DAE" />
        <path
            d="M401.5 386.006C432.413 386.006 457.484 411.381 457.484 442.696C457.484 474.011 432.413 499.387 401.5 499.387C370.587 499.387 345.516 474.011 345.516 442.696C345.516 411.381 370.587 386.006 401.5 386.006Z"
            stroke="#F93DAE" />
        <circle cx="401.5" cy="443.402" r="79.9902" stroke="#F93DAE" />
        <circle cx="401.5" cy="443.4" r="102.584" stroke="#F93DAE" />
        <path
            d="M401.5 316.814C471.416 316.814 528.09 373.177 528.09 442.698C528.09 512.219 471.416 568.582 401.5 568.582C331.584 568.582 274.91 512.219 274.91 442.698C274.91 373.177 331.584 316.814 401.5 316.814Z"
            stroke="#F93DAE" />
        <circle cx="401.5" cy="443.402" r="149.184" stroke="#F93DAE" />
        <path
            d="M401.5 271.625C495.588 271.625 571.865 348.214 571.865 442.696C571.865 537.178 495.588 613.768 401.5 613.768C307.412 613.768 231.135 537.178 231.135 442.696C231.135 348.214 307.412 271.625 401.5 271.625Z"
            stroke="#F93DAE" />
        <path
            d="M401.5 251.855C506.507 251.855 591.635 337.296 591.635 442.696C591.635 548.097 506.507 633.537 401.5 633.537C296.493 633.537 211.365 548.097 211.365 442.696C211.365 337.296 296.493 251.855 401.5 251.855Z"
            stroke="#F93DAE" />
        <path
            d="M401.5 230.674C518.988 230.674 614.229 325.601 614.229 442.696C614.229 559.792 518.988 654.719 401.5 654.719C284.012 654.719 188.771 559.792 188.771 442.696C188.771 325.601 284.012 230.674 401.5 230.674Z"
            stroke="#F93DAE" />
        <circle cx="401.5" cy="443.402" r="233.91" stroke="#F93DAE" />
        <path
            d="M401.5 186.898C542.382 186.898 656.592 301.422 656.592 442.696C656.592 583.971 542.382 698.494 401.5 698.494C260.618 698.494 146.408 583.971 146.408 442.696C146.408 301.422 260.618 186.898 401.5 186.898Z"
            stroke="#F93DAE" />
        <path
            d="M401.5 165.717C554.863 165.717 679.186 289.726 679.186 442.696C679.186 595.667 554.863 719.676 401.5 719.676C248.137 719.676 123.814 595.667 123.814 442.696C123.814 289.726 248.137 165.717 401.5 165.717Z"
            stroke="#F93DAE" />
        <circle cx="401.5" cy="443.402" r="300.279" stroke="#F93DAE" />
        <circle cx="401.5" cy="447.639" r="327.109" stroke="#F93DAE" />
        <circle cx="401.5" cy="447.639" r="349.703" stroke="#F93DAE" />
        <circle cx="401.5" cy="447.639" r="373.709" stroke="#F93DAE" />
        <circle cx="401.5" cy="447.639" r="400.539" stroke="#F93DAE" />
    </g>
    <defs>
        <linearGradient id="paint0_linear_360_327" x1="401.5" y1="103.79" x2="401.5" y2="423.633"
            gradientUnits="userSpaceOnUse">
            <stop stop-color="white" stop-opacity="0" />
            <stop offset="1" stop-color="#999999" />
        </linearGradient>
    </defs>
</svg>