<svg width="662" height="389" viewBox="0 0 662 389" fill="none" xmlns="http://www.w3.org/2000/svg">
<mask id="mask0_436_97" style="mask-type:alpha" maskUnits="userSpaceOnUse" x="0" y="0" width="662" height="389">
<path d="M331 1.28906C422.33 1.28906 504.99 22.9805 564.8 58.0254C624.622 93.0772 661.5 141.428 661.5 194.734C661.5 248.04 624.622 296.392 564.8 331.443C504.99 366.488 422.33 388.18 331 388.18C239.67 388.18 157.01 366.488 97.2002 331.443C37.3784 296.392 0.5 248.04 0.5 194.734C0.5 141.428 37.3784 93.0772 97.2002 58.0254C157.01 22.9805 239.67 1.28906 331 1.28906Z" fill="url(#paint0_linear_436_97)" stroke="#F93DAE"/>
</mask>
<g mask="url(#mask0_436_97)">
<circle cx="331" cy="406.781" r="30.5312" stroke="#F93DAE"/>
<path d="M331 354.27C359.281 354.27 382.219 377.485 382.219 406.135C382.219 434.785 359.281 458 331 458C302.719 458 279.781 434.785 279.781 406.135C279.781 377.485 302.719 354.27 331 354.27Z" stroke="#F93DAE"/>
<circle cx="331" cy="406.781" r="73.1992" stroke="#F93DAE"/>
<circle cx="331" cy="406.779" r="93.8867" stroke="#F93DAE"/>
<path d="M331 290.916C394.994 290.916 446.867 342.505 446.867 406.137C446.867 469.769 394.994 521.357 331 521.357C267.006 521.357 215.133 469.769 215.133 406.137C215.133 342.505 267.006 290.916 331 290.916Z" stroke="#F93DAE"/>
<circle cx="331" cy="406.781" r="136.555" stroke="#F93DAE"/>
<path d="M331 249.539C417.126 249.539 486.949 319.647 486.949 406.135C486.949 492.622 417.126 562.73 331 562.73C244.874 562.73 175.051 492.622 175.051 406.135C175.051 319.647 244.874 249.539 331 249.539Z" stroke="#F93DAE"/>
<path d="M331 231.438C427.124 231.438 505.051 309.65 505.051 406.135C505.051 502.619 427.124 580.832 331 580.832C234.876 580.832 156.949 502.619 156.949 406.135C156.949 309.65 234.876 231.438 331 231.438Z" stroke="#F93DAE"/>
<path d="M331 212.043C438.553 212.043 525.738 298.942 525.738 406.135C525.738 513.327 438.553 600.227 331 600.227C223.447 600.227 136.262 513.327 136.262 406.135C136.262 298.942 223.447 212.043 331 212.043Z" stroke="#F93DAE"/>
<circle cx="331" cy="406.781" r="214.133" stroke="#F93DAE"/>
<path d="M331 171.961C459.972 171.961 564.527 276.803 564.527 406.135C564.527 535.467 459.972 640.309 331 640.309C202.028 640.309 97.4727 535.467 97.4727 406.135C97.4727 276.803 202.028 171.961 331 171.961Z" stroke="#F93DAE"/>
<path d="M331 152.566C471.4 152.566 585.215 266.094 585.215 406.135C585.215 546.176 471.4 659.703 331 659.703C190.6 659.703 76.7852 546.176 76.7852 406.135C76.7852 266.094 190.6 152.566 331 152.566Z" stroke="#F93DAE"/>
<circle cx="331" cy="406.781" r="274.902" stroke="#F93DAE"/>
<circle cx="331" cy="410.66" r="299.469" stroke="#F93DAE"/>
<circle cx="331" cy="410.66" r="320.156" stroke="#F93DAE"/>
<circle cx="331" cy="410.66" r="342.137" stroke="#F93DAE"/>
<circle cx="331" cy="410.66" r="366.703" stroke="#F93DAE"/>
</g>
<defs>
<linearGradient id="paint0_linear_436_97" x1="331" y1="95.8223" x2="331" y2="388.68" gradientUnits="userSpaceOnUse">
<stop stop-color="white" stop-opacity="0"/>
<stop offset="1" stop-color="#999999"/>
</linearGradient>
</defs>
</svg>